<svg width="185" height="157" fill="none" xmlns="http://www.w3.org/2000/svg"><g clip-path="url(#clip0)" fill-rule="evenodd" clip-rule="evenodd"><path d="M92.734 12.461c20.35-8.565 31.624-18.032 57.884-8.426 28.842 10.551 39.098 37.281 32.304 76.546-6.243 36.074-43.672 72.777-84.627 75.622-43.69 3.036-82.007-16.418-93.75-48.756-8.503-23.42-8.582-71.432 31.2-82.825" fill="#000" fill-opacity=".149"/><path d="M122.945.669l-5.474 18.397-7.738 28.717-9.652 40.436-9.12-.288-5.73.86-4.31 2.716-4.407.303-3.657-8.387 3.54-1.957 3.464-3.032 3.217-4.224 2.441-4.578 2.651-7.29 2.14-9.831 1.046-9.779.176-6.342 4.436.755 5.003-.179 4.006-2.061 1.933-3.799-.12-3.333-1.672-3.964-3.823-4.792-5.452-4.562-6.132-3.587-7.292-2.549-6.49-1.51-6.627-.843-6.233-.014-6.986 1.15-6.477 2.625-5.676 4.214-4.696 5.336-3.49 5.345-3.084 6.028-3.37 8.638-1.932.234-3.445 2.668-1.503 4.565.297 4.043 2.138 5.756 3.524 3.551 4.723 1.757-2.927 35.377 7.269 21.508 38.987-15.037-2.292 14.387-1.179 15.51.033 4.199.627 2.293 1.439 1.311 1.594.519 1.562-.171 1.25-.874 1.012-2.788-.069 3.082.578 1.985 1.817 1.345 3.06.213 1.784-1.182 1.323-2.422-.028 2.277.842 2.099 1.61 1.136 2.268.378 2.378-1.028 1.085-1.65.794-.853.254 2.565.972 1.24 1.696.863 2.176.159 1.766-.655 1.533-2.263 3.341-20.683 1.927-13.701 1.66-5.943 1.93-2.396 3.497.117 3.959 1.71 2.417 2.986.506 3.757-2.143 3.273-2.452 2.59-1.92 2.003-1.141 1.994.004 2.3.936 1.931 1.589 1.362 2.676.212 2.974-1.894 3.079-2.274 4.196-3.543 2.967-2.992 3.844-5.427 1.133-3.506-.143-3.924-.955-3.069-1.519-3.214-1.305-2.56-1.042-2.888.231-2.442 24.39-80.108s-1.851-1.22-4.52-2.559c-3.015-1.512-7.027-3.195-9.718-3.789-1.336-.295-3.12-.914-5.178-1.398a51.485 51.485 0 0 0-7.96-1.202c-5.623-.386-10.621.561-10.621.561z" fill="#F1F6FA"/><path d="M4.234 106.566l25.93-9.327s4.706 7.678 12.994 10.238c5.401 1.668 12.1 2.264 19.538-.641 2.657-1.038 4.879-2.989 7.09-4.79 4.303-3.504 6.727-10.236 6.727-10.236l4.408-.303-2.204 3.924-1.757 6.471-2.53 14.31-1.335 13.366-.123 6.909.417 2.805 1.66 2.118 1.992.253 1.164.095 2.287-1.866-.094 1.286.578 1.985 1.817 1.345 2.403.342 1.925-.778 1.84-2.955-.029 2.277.841 2.099 1.61 1.136 2.269.378 2.378-1.028 1.879-2.503.054 1.922 1.172 1.883 2.559.926 2.245-.135 1.658-1.19.709-1.497 2.968-18.374 2.3-16.01 1.499-5.366 2.091-2.973 1.993-.277 2.245.662 3.218 1.442 2.03 2.508.719 2.944-.233 2.723-6.528 6.932-.865 2.594.742 2.628 2.196 1.992 2.687-.031 7.774-5.66 3.841-3.52 2.5 5.9 1.772 6.163 2.042 10.962s-4.459 2.955-9.254 5.573c-3.896 2.126-7.857 3.857-11.087 4.996-3.318 1.171-7.082 2.376-10.712 3.223-4.468 1.042-8.849 1.619-13.37 1.878-7.572.435-16.575.252-23.023-.764-3.301-.52-8.279-1.391-11.72-2.132-5.937-1.277-10.434-2.727-16.434-5.369-10.87-4.785-18.555-9.885-25.686-16.838-3.837-3.743-7.62-8.252-10.174-12.753-3.615-6.368-5.603-11.872-5.603-11.872z" fill="#294AF6"/><path d="M85.951 101.344c-.021.094-.08.36-.127.636-.813 4.795-3.746 30-5.134 37.103-.316 1.619-1.172 2.562-2.198 2.992-1.188.499-2.63.3-3.79-.404-1.159-.704-2.03-1.905-2.099-3.378-.37-7.961.77-22.004 3.974-37.382 1.062-5.097 2.446-8.692 5.41-10.895 1.787-1.326 4.152-2.154 7.387-2.48 4.744-.478 11.396.12 20.895 1.749a.4.4 0 0 1-.135.788c-7.843-1.344-13.725-1.986-18.189-1.887-4.374.096-7.36.898-9.48 2.473-2.828 2.1-4.092 5.555-5.105 10.415-3.187 15.296-4.325 29.263-3.958 37.182.056 1.194.776 2.16 1.716 2.731.939.57 2.103.754 3.065.351.817-.344 1.47-1.118 1.722-2.409 1.387-7.098 4.317-32.291 5.13-37.083.072-.418.13-.693.17-.805a.504.504 0 0 1 .13-.209.399.399 0 0 1 .276-.11.4.4 0 0 1 .34.622zm-.551.115z" fill="#000"/><path d="M93.21 105.857c-.02.091-.07.335-.107.588-.686 4.533-2.978 28.434-4.366 35.538-.626 3.202-3.735 3.838-6.075 2.904-1.58-.631-2.78-1.975-2.667-3.672.326-4.912.836-8.054.836-8.054a.4.4 0 0 1 .79.128s-.504 3.113-.828 7.979c-.09 1.346.912 2.375 2.166 2.876 1.912.763 4.481.303 4.993-2.314 1.386-7.098 3.675-30.976 4.36-35.505.06-.399.113-.661.149-.767a.487.487 0 0 1 .137-.216.405.405 0 0 1 .51-.025.4.4 0 0 1 .101.54zm-.555.119z" fill="#000"/><path d="M102.277 109.446a9.866 9.866 0 0 0-.101.512c-.681 4.112-2.952 25.92-4.35 33.318-.343 1.814-1.223 2.949-2.293 3.565-1.612.928-3.688.675-5.153-.299-1.071-.712-1.812-1.803-1.846-3.077-.117-4.335.954-12.682.954-12.682a.4.4 0 1 1 .793.102s-1.063 8.265-.948 12.559c.028 1.012.639 1.866 1.49 2.432 1.226.815 2.962 1.048 4.31.272.903-.519 1.618-1.492 1.907-3.021 1.397-7.393 3.666-29.189 4.346-33.3.062-.369.116-.611.153-.708a.477.477 0 0 1 .157-.218c.172-.127.334-.113.485-.003a.4.4 0 0 1 .096.548zm-.548.112a.35.35 0 0 0 .319.05.398.398 0 0 1-.319-.05z" fill="#000"/><path d="M98.61 132.666s-1.283 8.758-1.092 12.366c.089 1.69 1.411 2.937 3.063 3.455 2.443.765 5.545-.068 6.166-3.25.902-4.617 3.164-18.678 4.48-29.254.658-5.284 1.418-8.612 2.315-10.635.556-1.253 1.149-1.981 1.82-2.338.531-.283 1.104-.322 1.72-.231.679.099 1.405.352 2.184.644.975.365 1.857.755 2.652 1.154a5.83 5.83 0 0 1 1.574 9.22 370.8 370.8 0 0 1-4.716 4.986c-2.363 2.42-1.511 5.785.421 7.534 1.324 1.198 3.136 1.637 4.771.583 4.102-2.646 13.73-9.574 16.845-16.596 2.328-5.249.029-9.938-2.006-13.852-.654-1.257-1.276-2.432-1.688-3.517-.385-1.019-.588-1.951-.413-2.794.472-2.28 17.693-58.42 24.618-80.968a.4.4 0 0 0-.764-.235c-6.932 22.568-24.165 78.758-24.638 81.04-.163.789-.063 1.646.218 2.567.395 1.294 1.151 2.725 1.957 4.276 1.935 3.722 4.198 8.168 1.984 13.159-3.055 6.887-12.524 13.653-16.546 16.247-1.305.842-2.745.452-3.801-.503-1.637-1.482-2.388-4.331-.386-6.382.865-.886 2.83-2.959 4.726-4.997a6.63 6.63 0 0 0-1.795-10.482 27.908 27.908 0 0 0-2.733-1.189c-1.74-.652-3.251-1.067-4.56-.37-.789.42-1.522 1.247-2.176 2.72-.916 2.066-1.704 5.462-2.377 10.861-1.314 10.556-3.57 24.591-4.471 29.199-.515 2.638-3.116 3.274-5.141 2.64-1.327-.416-2.433-1.377-2.504-2.734-.189-3.562 1.084-12.207 1.084-12.207a.4.4 0 0 0-.791-.117zM122.563.552c-8.91 29.15-15.817 55.944-22.872 87.58a.4.4 0 0 0 .78.174c7.051-31.614 13.953-58.39 22.857-87.52a.399.399 0 0 0-.266-.5.399.399 0 0 0-.499.266zM80.896 91.107c-2.588.16-4.414.305-4.414.305a.4.4 0 0 0 .063.797s1.82-.145 4.4-.303a.4.4 0 0 0-.049-.799zM70.575 68.416a.4.4 0 0 0-.334-.466l-8.863-1.332a.4.4 0 0 0-.46.404s.06 2.606 1.017 4.798c.675 1.545 1.793 2.87 3.576 3.08 1.543.18 2.703-.843 3.51-2.184 1.117-1.861 1.554-4.3 1.554-4.3zm-8.83-.934c.064.812.269 2.518.923 4.018.562 1.285 1.453 2.431 2.936 2.605 1.221.143 2.093-.74 2.73-1.801.78-1.297 1.203-2.892 1.37-3.626l-7.958-1.196zm8.151-21.571l.756 12.748a.518.518 0 0 1-.647.531l-5.65-1.475a.4.4 0 1 0-.202.774l5.65 1.475a1.317 1.317 0 0 0 1.647-1.352l-.755-12.749a.4.4 0 0 0-.799.048zM57.868 20.477l-4.603-12.45a.4.4 0 1 0-.75.278l4.602 12.449a.4.4 0 0 0 .75-.277z" fill="#000"/><path d="M32.662 62.206c-1.215-.203-4.974-1.101-7.65-4.678-1.227-1.643-2.778-5.294-3.004-8.977-.231-3.757.905-7.532 5.03-9.33 1.59-.694 3.374-.285 4.939.488 2.248 1.111 4.03 2.948 4.03 2.948a.4.4 0 0 1-.574.557s-1.684-1.738-3.81-2.788c-1.353-.668-2.89-1.072-4.266-.472-3.768 1.643-4.762 5.115-4.55 8.548.214 3.505 1.678 6.984 2.846 8.546 3.005 4.019 7.474 4.416 7.474 4.416a.4.4 0 0 1 .363.431l-2.916 35.248c.794 1.287 9.14 14.025 26.73 10.899 13.384-2.378 18.248-14.752 18.78-16.216l-3.594-8.243a.4.4 0 0 1 .733-.32l3.657 8.388a.4.4 0 0 1 .013.286s-4.752 14.281-19.45 16.893c-19.104 3.395-27.625-11.39-27.625-11.39a.4.4 0 0 1-.052-.234l2.896-35z" fill="#000"/><path d="M57.553 21.126L36.007 43.215a.4.4 0 0 1-.573-.559l21.772-22.32a.4.4 0 0 1 .5-.058s1.996 1.267 5.186 3.101c7.711 4.433 22.408 12.193 32.742 13.33 4.279.47 7.798-.181 9.664-2.812 2.332-3.291 1.373-7.18-1.163-10.876-3.916-5.709-11.6-10.955-17.433-12.95-10.308-3.526-26.264-6.778-38.128.736C35.662 18.985 29.96 38.823 29.96 38.823a.4.4 0 0 1-.768-.221s5.824-20.155 18.954-28.471c12.079-7.65 28.32-4.407 38.815-.817 5.968 2.042 13.827 7.414 17.834 13.254 2.746 4.004 3.682 8.228 1.155 11.791-2.014 2.842-5.783 3.653-10.403 3.145-10.43-1.147-25.272-8.958-33.053-13.432a164.535 164.535 0 0 1-4.94-2.946z" fill="#000"/><path d="M41.013 70.976S45.253 81.9 55.737 85.23c4.489 1.425 10.125 1.468 17.064-1.352 8.016-3.256 12.707-11.53 15.42-20.308 4.033-13.052 3.71-27.189 3.71-27.189a.4.4 0 1 0-.799.019s.32 14.004-3.676 26.934c-2.64 8.544-7.154 16.634-14.956 19.803-6.72 2.73-12.175 2.71-16.52 1.33-10.131-3.217-14.22-13.78-14.22-13.78a.4.4 0 0 0-.747.289z" fill="#000"/><path d="M80.847 49.976a1.603 1.603 0 1 0 .098 3.204 1.603 1.603 0 0 0-.098-3.204zm-24.986-4.047a1.603 1.603 0 1 0 .099 3.204 1.603 1.603 0 0 0-.099-3.204zm78.771 71.862c2.784 5.081 5.073 13.938 6.268 22.886a.4.4 0 0 0 .793-.106c-1.21-9.059-3.541-18.02-6.359-23.164a.4.4 0 0 0-.702.384zM30.03 96.863l-25.932 9.326a.4.4 0 0 0 .271.753L30.3 97.616a.4.4 0 0 0-.27-.753z" fill="#000"/></g><defs><clipPath id="clip0"><path fill="#fff" d="M0 0h185v157H0z"/></clipPath></defs></svg>