<?xml version="1.0" standalone="no"?>
<svg version="1.0" xmlns="http://www.w3.org/2000/svg"
 width="670" height="115" viewBox="75 341 648 102"
 preserveAspectRatio="xMidYMid meet">
  <g transform="translate(0,800) scale(0.1,-0.1)"
     fill="currentColor" stroke="none">
    <path d="M2030 4626 c0 -9 -50 -208 -110 -442 -61 -235 -109 -432 -107 -437 2
    -6 86 -32 188 -58 101 -26 299 -76 439 -113 140 -36 258 -62 261 -58 4 4 18
    52 32 107 33 129 141 553 173 674 13 51 24 97 24 101 0 4 -71 26 -157 48 -141
    36 -245 63 -608 157 -55 14 -108 28 -117 31 -12 3 -18 0 -18 -10z m372 -467
    c63 -17 78 -25 74 -38 -3 -9 -12 -45 -21 -81 -9 -36 -19 -68 -21 -72 -4 -7
    -153 30 -166 41 -10 9 33 171 45 171 6 0 46 -10 89 -21z"/>
    <path d="M755 4528 c-3 -7 -4 -215 -3 -463 l3 -450 205 0 205 0 -3 168 -4 167
    31 0 c70 0 133 -104 147 -241 11 -110 -15 -99 224 -99 242 0 221 -12 191 116
    -27 110 -55 177 -107 255 -24 37 -44 69 -44 71 0 3 16 22 35 42 34 37 65 114
    65 166 0 50 -30 126 -66 168 -42 49 -106 85 -182 101 -78 16 -691 15 -697 -1z
    m509 -208 c15 -15 21 -33 21 -66 0 -55 -28 -84 -81 -84 l-34 0 0 91 0 92 37
    -6 c20 -4 46 -16 57 -27z"/>
    <path d="M3030 4075 l0 -466 383 3 c363 3 384 4 427 24 105 48 151 119 151
    229 0 80 -31 141 -92 182 -21 14 -39 28 -39 32 0 3 16 19 36 35 75 60 96 177
    49 273 -31 62 -78 99 -159 126 -56 19 -89 21 -408 25 l-348 3 0 -466z m521
    246 c31 -32 35 -51 18 -99 -11 -33 -49 -52 -100 -52 l-29 0 0 90 0 90 41 0
    c31 0 47 -6 70 -29z m-2 -330 c47 -33 50 -128 6 -157 -13 -8 -43 -16 -67 -17
    l-43 -2 -3 89 c-2 49 -1 95 2 102 7 17 73 8 105 -15z"/>
    <path d="M4125 4528 c-3 -7 -4 -215 -3 -463 l3 -450 383 -3 382 -2 0 115 0
    115 -177 2 -178 3 -3 348 -2 347 -200 0 c-151 0 -202 -3 -205 -12z"/>
    <path d="M5027 4533 c-4 -3 -7 -213 -7 -465 l0 -458 465 0 465 0 -2 463 -3
    462 -456 3 c-250 1 -459 -1 -462 -5z m548 -458 l0 -90 -92 -3 -93 -3 0 89 c0
    49 3 92 7 96 4 4 46 5 93 4 l85 -3 0 -90z"/>
    <path d="M6070 4534 c0 -6 269 -349 323 -413 15 -18 26 -39 23 -47 -3 -7 -79
    -109 -169 -226 -90 -117 -167 -219 -171 -225 -6 -10 39 -13 212 -13 l219 0 69
    90 c37 50 70 90 73 90 3 -1 38 -41 76 -90 l70 -90 224 0 c177 0 221 3 214 13
    -6 6 -90 112 -187 235 l-177 223 166 214 c91 117 168 221 171 229 5 14 -18 16
    -209 16 l-216 0 -66 -85 c-37 -47 -68 -85 -70 -85 -2 0 -34 38 -71 85 l-67 85
    -219 0 c-120 0 -218 -3 -218 -6z"/>
  </g>
</svg>